<svg width="84" height="101" viewBox="0 0 84 101" fill="none" xmlns="http://www.w3.org/2000/svg">
<g filter="url(#filter0_i_23_27)">
<path d="M42 0L47.4084 38.943L68.1629 25.837L55.057 46.5916L84 52L55.057 57.4084L68.1629 78.1629L47.4084 65.057L42 101L36.5916 65.057L15.8371 78.1629L28.943 57.4084L0 52L28.943 46.5916L15.8371 25.837L36.5916 38.943L42 0Z" fill="#1C1C1C"/>
</g>
<path d="M46.9131 39.0118L47.0198 39.7798L47.6753 39.3658L66.5583 27.4417L54.6342 46.3247L54.2407 46.9478L54.9651 47.0831L81.2779 52L54.9651 56.9169L54.2407 57.0522L54.6342 57.6753L66.5583 76.5583L47.6753 64.6342L47.0279 64.2253L46.9139 64.9826L42 97.6397L37.0861 64.9826L36.9721 64.2253L36.3247 64.6342L17.4417 76.5583L29.3658 57.6753L29.7593 57.0522L29.0349 56.9169L2.72208 52L29.0349 47.0831L29.7593 46.9478L29.3658 46.3247L17.4417 27.4417L36.3247 39.3658L36.9802 39.7798L37.0869 39.0118L42 3.63481L46.9131 39.0118Z" stroke="black"/>
<g filter="url(#filter1_i_23_27)">
<path d="M47.4898 33.2577L50.5802 35.0152C50.5802 35.0152 53.6707 32.0928 53.6707 28.7208C53.6707 25.3488 47.4898 22.2731 41.3088 23.1519C35.1279 24.0307 27.9168 29.3752 27.9168 37.4678C27.9168 45.5604 55.4367 44.3955 57.2027 54.2049C58.9687 64.0144 51.9047 67.0901 51.9047 67.0901C47.9313 69.7263 42.1918 68.8476 39.1013 67.9688C34.8187 66.7511 25.5487 60.1123 22.3245 56.9843L21 58.9415C21 58.9415 22.4913 63.575 38.5225 72.3626C54.5537 81.1503 63.8251 65.9005 62.9421 56.9843C61.3884 41.2951 37.1011 43.9154 33.3619 37.4678C29.6227 31.0201 38.6598 27.1063 41.3088 27.1063C43.9578 27.1063 48.1776 28.4281 48.3728 28.7208C48.7456 29.28 47.4898 33.2577 47.4898 33.2577Z" fill="white"/>
</g>
<path d="M47.4898 33.2577L50.5802 35.0152C50.5802 35.0152 53.6707 32.0928 53.6707 28.7208C53.6707 25.3488 47.4898 22.2731 41.3088 23.1519C35.1279 24.0307 27.9168 29.3752 27.9168 37.4678C27.9168 45.5604 55.4367 44.3955 57.2027 54.2049C58.9687 64.0144 51.9047 67.0901 51.9047 67.0901C47.9313 69.7263 42.1918 68.8476 39.1013 67.9688C34.8187 66.7511 25.5487 60.1123 22.3245 56.9843L21 58.9415C21 58.9415 22.4913 63.575 38.5225 72.3626C54.5537 81.1503 63.8251 65.9005 62.9421 56.9843C61.3884 41.2951 37.1011 43.9154 33.3619 37.4678C29.6227 31.0201 38.6598 27.1063 41.3088 27.1063C43.9578 27.1063 48.1776 28.4281 48.3728 28.7208C48.7456 29.28 47.4898 33.2577 47.4898 33.2577Z" stroke="white"/>
<defs>
<filter id="filter0_i_23_27" x="0" y="0" width="84" height="105" filterUnits="userSpaceOnUse" color-interpolation-filters="sRGB">
<feFlood flood-opacity="0" result="BackgroundImageFix"/>
<feBlend mode="normal" in="SourceGraphic" in2="BackgroundImageFix" result="shape"/>
<feColorMatrix in="SourceAlpha" type="matrix" values="0 0 0 0 0 0 0 0 0 0 0 0 0 0 0 0 0 0 127 0" result="hardAlpha"/>
<feOffset dy="4"/>
<feGaussianBlur stdDeviation="2"/>
<feComposite in2="hardAlpha" operator="arithmetic" k2="-1" k3="1"/>
<feColorMatrix type="matrix" values="0 0 0 0 0 0 0 0 0 0 0 0 0 0 0 0 0 0 0.25 0"/>
<feBlend mode="normal" in2="shape" result="effect1_innerShadow_23_27"/>
</filter>
<filter id="filter1_i_23_27" x="20.4494" y="22.5" width="43.0505" height="57" filterUnits="userSpaceOnUse" color-interpolation-filters="sRGB">
<feFlood flood-opacity="0" result="BackgroundImageFix"/>
<feBlend mode="normal" in="SourceGraphic" in2="BackgroundImageFix" result="shape"/>
<feColorMatrix in="SourceAlpha" type="matrix" values="0 0 0 0 0 0 0 0 0 0 0 0 0 0 0 0 0 0 127 0" result="hardAlpha"/>
<feOffset dy="4"/>
<feGaussianBlur stdDeviation="2"/>
<feComposite in2="hardAlpha" operator="arithmetic" k2="-1" k3="1"/>
<feColorMatrix type="matrix" values="0 0 0 0 0 0 0 0 0 0 0 0 0 0 0 0 0 0 0.25 0"/>
<feBlend mode="normal" in2="shape" result="effect1_innerShadow_23_27"/>
</filter>
</defs>
</svg>
